# xmcd
#
# Track frame offsets:
#	182
#	15825
#	31785
#	51705
#	65845
#	85505
#	107827
#	124410
#	140575
#	155205
#	168350
#	182912
#	199270
#
# Disc length: 2824 seconds
#
# Revision: 0
# Processed by: cddbd v1.5.1PL2 Copyright (c) Steve Scherf et al.
# Submitted via: EasyCDDAExtractor 8.2.2.1
#
DISCID=ba0b060d
DTITLE=Various Artist - Top Hits '70
DYEAR=1993
DGENRE=Pop
TTITLE0=Torontáli István - Drága Alice
TTITLE1=Kocsándi Miklós - Nélküled
TTITLE2=Szomor György - Valaki Vár
TTITLE3=Tunyogi Bernadett - Csörpi,Csörpi,Csip,Csip
TTITLE4=Delhusa Gjon,Tisza Bea - Csak Egy Õszint szó
TTITLE5=Homonyik Sándor - Álmodj Szépet
TTITLE6=Szomor György - Cukor Bébi Vagy
TTITLE7=Berki Tamás - Itt A Tüzes Nyár
TTITLE8=Keresztes Ildikó - Vénusz
TTITLE9=Ttunyogi Péter - Megyek Hozzád
TTITLE10=Farkas Péter - Búcsúzni Jöttem
TTITLE11=Torontáli István - Köss Egy Sárga Szalagot A Tölgyfára
TTITLE12=Tunyogi Péter - Csak Szólj
EXTD=
EXTT0=
EXTT1=
EXTT2=
EXTT3=
EXTT4=
EXTT5=
EXTT6=
EXTT7=
EXTT8=
EXTT9=
EXTT10=
EXTT11=
EXTT12=
PLAYORDER=
